{"title":"Brand.A.Second.Coming.2015.BRRiP.XViD.AC3.5.1.ReLeNTLesS","uid":12749205,"size":1671195234,"categoryP":"video","categoryS":"movies","magnet":"?xt=urn:btih:eba77e4a841ad9894a1c9ccfb2f26d25af9c4bff&amp;dn=Brand.A.Second.Coming.2015.BRRiP.XViD.AC3.5.1.ReLeNTLesS&amp;tr=udp%3A%2F%2Ftracker.leechers-paradise.org%3A6969&amp;tr=udp%3A%2F%2Fzer0day.ch%3A1337&amp;tr=udp%3A%2F%2Fopen.demonii.com%3A1337&amp;tr=udp%3A%2F%2Ftracker.coppersurfer.tk%3A6969&amp;tr=udp%3A%2F%2Fexodus.desync.com%3A6969","seeders":5,"leechers":0,"uploader":"TvTeam","files":4,"time":1447353359,"description":"------------------------------------------------------------------------\r\n\r  https://www.torrenting.com\r\n\r\nSign up is OPEN - for time being. Come and have fun.\r\n\r\n------------------------------------------------------------------------P0STER\r\n[img]http://i.imgur.com/bZ0if2L.png[/img]\r\n\r\niMDB: http://www.imdb.com/title/tt3798628/\r\n\r\nGeneral\r\nComplete name               : Brand.A.Second.Coming.2015.BRRiP.XViD.AC3.5.1.ReLeNTLesS.avi\r\nFormat                      : AVI\r\nFormat/Info                 : Audio Video Interleave\r\nFile size                   : 1.54 GiB\r\nDuration                    : 1h 55mn\r\nOverall bit rate            : 1 903 Kbps\r\n\r\nVideo\r\nID                          : 0\r\nFormat                      : MPEG-4 Visual\r\nFormat profile              : Advanced   \r\nFormat settings, BVOP       : 1\r\nFormat settings, QPel       : No\r\nFormat settings, GMC        : No warppoints\r\nFormat settings, Matrix     : Default (H.263)\r\nMuxing mode                 : Packed bitstream\r\nCodec ID                    : XVID\r\nCodec ID/Hint               : XviD\r\nDuration                    : 1h 55mn\r\nBit rate                    : 1 703 Kbps\r\nWidth                       : 720 pixels\r\nHeight                      : 400 pixels\r\nDisplay aspect ratio        : 16:9\r\nFrame rate                  : 23.976 fps\r\nColor space                 : YUV\r\nChroma subsampling          : 4:2:0\r\nBit depth                   : 8 bits\r\nScan type                   : Progressive\r\nCompression mode            : Lossy\r\nBits/(Pixel*Frame)          : 0.247\r\nStream size                 : 1.38 GiB (90%)\r\nWriting library             : XviD 1.2.1 (UTC 2008-12-04)\r\n\r\nAudio\r\nID                          : 1\r\nFormat                      : AC-3\r\nFormat/Info                 : Audio Coding 3\r\nMode extension              : CM (complete main)\r\nFormat settings, Endianness : Big\r\nCodec ID                    : 2000\r\nDuration                    : 1h 55mn\r\nBit rate mode               : Constant\r\nBit rate                    : 192 Kbps\r\nChannel(s)                  : 6 channels\r\nChannel positions           : Front: L C R, Side: L R, LFE\r\nSampling rate               : 48.0 KHz\r\nCompression mode            : Lossy\r\nStream size                 : 159 MiB (10%)\r\nAlignment                   : Aligned on interleaves\r\nInterleave, duration        : 64 ms (1.53 video frames)\r\nInterleave, preload duratio : 192 ms\r\nTitle                       : Brand.A.Second.Coming.2015.ReLeNTLesS.audio..5.1.English\r\nSample Included             : Yes\r\nSource                      : FAPCAVE Thanks\r\n\r\nPL0T\r\nFollows comedian/author/activist Russell Brand as he dives headlong into drugs, sex &amp; fame in an attempt to find happiness, only to realize that our culture feeds us bad ideas &amp; empty idols. Through his stand up, Brand explores his own true icons - Gandhi, Che Guevara, Malcolm X &amp; Jesus Christ- &amp; evolves from addict &amp; Hollywood star to an unexpected political disruptor &amp; newfound hero to the underserved. Will Brand hold fast against the roar of criticism to break out of the very system that built him.\r\n\r\nCAST\r\nDirector: Ondi Timoner\r\nWriter: Ondi Timoner\r\nStars: Simon Amstell, Andrew Antonio, Barbara Brand\r\n\r\nN0TES\r\nResized then Degrained and sharpend, audio was out of sync so resynced audio.... so YES audio is in sync.\r\n\r\nSCREENS\r\n[img]http://i.imgur.com/m2rjoGW.png[/img]\r\n[img]http://i.imgur.com/8BiKSNq.png[/img]\r\n[img]http://i.imgur.com/o01SObT.png[/img]\r\n[img]http://i.imgur.com/pmGf6Vr.png[/img]\r\n[img]http://i.imgur.com/39z2VkN.png[/img]\r\n[img]http://i.imgur.com/Pf0GGCK.png[/img]\r\n[img]http://i.imgur.com/yn5l32e.png[/img]\r\n[img]http://i.imgur.com/XYPY7Tv.png[/img]\r\n\r\nTRAiLER\r\n\r\nGREETZ\r\n\r\nHIVE-CM8, Blackjesus, M0RPH, M00SE, MiLLENiUM,\r\n\r\nMANiX, TiTAN, Anonymous, TuX, \r\n\r\nACAB, KingStoner, FooKas, 4PlayHD, \r\n\r\nSoZE, GodFather, Cld.... \r\n\r\nKeep up the good work guyz","torrent":{"xt":"urn:btih:eba77e4a841ad9894a1c9ccfb2f26d25af9c4bff","amp;dn":"Brand.A.Second.Coming.2015.BRRiP.XViD.AC3.5.1.ReLeNTLesS","amp;tr":["udp%3A%2F%2Ftracker.leechers-paradise.org%3A6969","udp%3A%2F%2Fzer0day.ch%3A1337","udp%3A%2F%2Fopen.demonii.com%3A1337","udp%3A%2F%2Ftracker.coppersurfer.tk%3A6969","udp%3A%2F%2Fexodus.desync.com%3A6969"],"infoHash":"eba77e4a841ad9894a1c9ccfb2f26d25af9c4bff","infoHashBuffer":{"type":"Buffer","data":[235,167,126,74,132,26,217,137,74,28,156,207,178,242,109,37,175,156,75,255]},"announce":[],"urlList":[]}}